
<svg xmlns="http://www.w3.org/2000/svg" version="1.1" xmlns:xlink="http://www.w3.org/1999/xlink" xmlns:svgjs="http://svgjs.dev/svgjs" width="2000" height="1944" viewBox="0 0 2000 1944"><g transform="matrix(1,0,0,1,-0.24555298936888903,0.788497906431985)"><svg viewBox="0 0 254 247" data-background-color="#915eff" preserveAspectRatio="xMidYMid meet" height="1944" width="2000" xmlns="http://www.w3.org/2000/svg" xmlns:xlink="http://www.w3.org/1999/xlink"><g id="tight-bounds" transform="matrix(1,0,0,1,0.031185229649850044,-0.09997365579206985)"><svg viewBox="0 0 253.93762954070033 247.2" height="247.2" width="253.93762954070033"><g><svg viewBox="0 0 253.93762954070033 247.2" height="247.2" width="253.93762954070033"><g><svg viewBox="0 0 253.93762954070033 247.2" height="247.2" width="253.93762954070033"><g id="textblocktransform"><svg viewBox="0 0 253.93762954070033 247.2" height="247.2" width="253.93762954070033" id="textblock"><g><svg viewBox="0 0 253.93762954070033 247.2" height="247.2" width="253.93762954070033"><path d="M253.343 53.02C252.149 27.36 248.747 20.227 248.747 20.227 238.301-6.202 225.265-0.506 213.553 3.292 192.876 3.446 172.283 9.091 151.654 12.119 108.354 12.581 64.684 4.986 21.6 23.717 17.553 29.464-4.199 24.846 0.72 56.304 2.009 69.39 6.713 83.913 6.57 95.922 7.214 98.026 8.11 93.202 8.492 96.23 9.829 104.39 12.013 100.541 13.804 105.365 11.309 118.246 13.1 128.971 14.807 140.21 11.798 143.135 7.942 141.749 6.211 151.449 6.032 158.479 5.065 157.145 4.003 156.837 3.227 156.632 1.663 157.402 1.926 159.608 2.821 167.152-1.023 171.514 1.388 178.904-0.271 186.91 2.534 193.838 2.152 202.511 2.105 204.255 2.367 205.744 2.785 206.154 4.636 208.361 1.938 212.672 2.224 217.342 21.206 249.262 41.799 227.195 61.246 241.872 66.296 231.608 62.5 245.516 64.517 243.36 66.093 240.846 67.239 251.263 69.018 245.362 69.293 243.668 68.875 239.665 69.854 240.435 70.367 240.846 70.821 240.743 70.892 238.382 71 234.841 70.057 237.048 69.806 235.201 72.516 225.861 71.847 248.081 74.39 247.158 74.271 244.438 73.531 240.538 75.047 241.051 76.551 237.151 76.599 233.918 77.936 242.693 77.984 244.592 78.222 245.926 78.604 246.85 82.783 237.305 86.937 250.237 91.319 245.926 94.005 241.205 96.583 248.492 99.305 246.696 100.26 245.259 101.227 242.693 102.146 247.004 113.404 247.928 125.402 244.079 136.075 247.158 164.595 241.41 195.073 249.518 225.145 241.923 232.236 238.998 239.602 234.841 246.514 231.506 246.514 231.506 252.113 222.371 252.113 181.316S253.307 145.393 253.486 112.703C253.665 80.013 254.501 78.679 253.307 53.02Z" opacity="1" fill="#dfd9ff" data-fill-palette-color="tertiary"></path><g transform="matrix(1,0,0,1,55.76832,26.230666666666668)"><svg width="142.40098954070032" viewBox="2.45 -35.35 26.8 36.65" height="194.73866666666666" data-palette-color="#915eff"><path d="M2.45-2.35Q2.45-3.35 2.93-4.03 3.4-4.7 4.35-4.65L4.35-4.65 5-4.65Q5.6-11.5 5.6-19.15L5.6-19.15Q5.6-25.55 5.5-29.1L5.5-29.1Q5.35-29.1 5.05-29L5.05-29Q4.4-28.9 3.93-29.35 3.45-29.8 3.45-30.65L3.45-30.65Q3.45-31.65 4.1-32.33 4.75-33 6.2-33.6L6.2-33.6Q8.35-34.45 10.78-34.9 13.2-35.35 15.5-35.35L15.5-35.35Q19.4-35.35 22.53-34.2 25.65-33.05 27.45-30.85 29.25-28.65 29.25-25.65L29.25-25.65Q29.25-22.7 26.98-20.43 24.7-18.15 20.8-17.55L20.8-17.55Q24.6-16.8 26.68-14.53 28.75-12.25 28.75-9.45L28.75-9.45Q28.75-6.3 26.93-4.1 25.1-1.9 22.08-0.83 19.05 0.25 15.4 0.15L15.4 0.15 9.45-0.1Q8.9 1.3 7.05 1.3L7.05 1.3Q5.2 1.3 4.7-0.25L4.7-0.25 4.2-0.25Q2.45-0.4 2.45-2.35L2.45-2.35ZM9.85-4.35Q13.15-4.25 14.95-4.25L14.95-4.25Q19.25-4.25 21.53-5.53 23.8-6.8 23.8-9.65L23.8-9.65Q23.8-12.8 21.33-14.13 18.85-15.45 14.6-15.6L14.6-15.6Q13.25-15.6 12.55-16 11.85-16.4 11.85-17.65L11.85-17.65Q11.85-18.9 12.58-19.35 13.3-19.8 14.5-19.85L14.5-19.85Q17.15-19.95 19.18-20.33 21.2-20.7 22.73-21.9 24.25-23.1 24.25-25.45L24.25-25.45Q24.25-28.25 21.93-29.7 19.6-31.15 15.45-31.15L15.45-31.15Q14.35-31.15 12.95-30.98 11.55-30.8 10.5-30.5L10.5-30.5Q10.6-26.1 10.6-19.15L10.6-19.15Q10.6-15.25 10.43-12.03 10.25-8.8 9.85-4.35L9.85-4.35Z" opacity="1" transform="matrix(1,0,0,1,0,0)" fill="#915eff" class="wordmark-text-0" data-fill-palette-color="quaternary" id="text-0"></path></svg></g></svg></g></svg></g></svg></g><g></g></svg></g><defs></defs></svg><rect width="253.93762954070033" height="247.2" fill="none" stroke="none" visibility="hidden"></rect></g></svg></g></svg>